<?xml version="1.0" encoding="UTF-8" standalone="no"?>
<!-- Created with Inkscape (http://www.inkscape.org/) -->

<svg
   xmlns:dc="http://purl.org/dc/elements/1.1/"
   xmlns:cc="http://creativecommons.org/ns#"
   xmlns:rdf="http://www.w3.org/1999/02/22-rdf-syntax-ns#"
   xmlns:svg="http://www.w3.org/2000/svg"
   xmlns="http://www.w3.org/2000/svg"
   xmlns:sodipodi="http://sodipodi.sourceforge.net/DTD/sodipodi-0.dtd"
   xmlns:inkscape="http://www.inkscape.org/namespaces/inkscape"
   version="1.1"
   id="svg4504"
   width="190.66667"
   height="213.33333"
   viewBox="0 0 190.66667 213.33333"
   sodipodi:docname="tree.svg"
   inkscape:version="0.92.2 (5c3e80d, 2017-08-06)">
  <title
     id="title4526">Tree</title>
  <metadata
     id="metadata4510">
    <rdf:RDF>
      <cc:Work
         rdf:about="">
        <dc:format>image/svg+xml</dc:format>
        <dc:type
           rdf:resource="http://purl.org/dc/dcmitype/StillImage" />
        <dc:title>Tree</dc:title>
      </cc:Work>
    </rdf:RDF>
  </metadata>
  <defs
     id="defs4508" />
  <sodipodi:namedview
     pagecolor="#ffffff"
     bordercolor="#666666"
     borderopacity="1"
     objecttolerance="10"
     gridtolerance="10"
     guidetolerance="10"
     inkscape:pageopacity="0"
     inkscape:pageshadow="2"
     inkscape:window-width="1920"
     inkscape:window-height="1017"
     id="namedview4506"
     showgrid="false"
     inkscape:zoom="2.8107495"
     inkscape:cx="31.867485"
     inkscape:cy="120.16831"
     inkscape:window-x="-8"
     inkscape:window-y="-8"
     inkscape:window-maximized="1"
     inkscape:current-layer="svg4504" />
  <path
     style="fill:#000000;stroke-width:1.33333337"
     d="M 90.756443,180.49044 V 169.1571 l -7,-0.008 c -16.428446,-0.0184 -42.672878,-5.96104 -48.806316,-11.05133 -1.436329,-1.19205 -0.467524,-1.9786 4.663338,-3.78605 l 6.47631,-2.28127 -4.666666,-0.12376 c -8.356134,-0.2216 -8.648752,-1.96707 -1.036771,-6.18433 l 7.036771,-3.89859 -5.881475,-0.42049 -5.881473,-0.4205 9.976393,-4.3369 c 9.332478,-4.05699 20.312848,-10.56578 13.786555,-8.1722 -4.2247,1.54945 -13.665319,2.43049 -16.086774,1.50129 -1.591032,-0.61053 0.35364,-2.14234 6.938058,-5.46507 5.031793,-2.53922 10.830387,-5.98238 12.88576,-7.65145 l 3.737045,-3.03468 -7.40765,-0.0706 c -4.074208,-0.0388 -8.125878,-0.78884 -9.003711,-1.66667 -1.239193,-1.23919 -1.100433,-1.59606 0.620588,-1.59606 2.927412,0 15.818425,-4.85421 18.926576,-7.12694 2.129672,-1.55726 1.464832,-1.71003 -5.079757,-1.16731 -8.878594,0.73629 -9.765603,-0.95937 -2.269986,-4.339418 2.893083,-1.304598 6.597671,-3.795722 8.232419,-5.535832 l 2.97227,-3.163836 -3.899086,-0.02965 -3.899085,-0.02965 3.333333,-2.60737 3.333334,-2.607371 -5.333334,-0.04267 -5.333333,-0.04267 7,-3.258968 c 3.85,-1.792447 7,-3.513848 7,-3.825351 0,-0.311502 -2.702577,0.01 -6.005728,0.714529 -3.698278,0.788766 -7.412292,0.810348 -9.666667,0.05617 l -3.660939,-1.22472 5.333334,-1.731581 c 11.543381,-3.747807 20.513104,-9.991096 12.022237,-8.367964 -1.821102,0.348125 -4.327121,0.24307 -5.56893,-0.233458 -1.660906,-0.637349 -0.12296,-1.876046 5.817132,-4.685268 9.757161,-4.614408 11.198289,-6.373621 4.636033,-5.659297 l -4.906472,0.534087 5.772968,-5.007627 c 7.490963,-6.497846 11.541948,-13.057446 15.397731,-24.93292 l 3.127869,-9.633562 2.301826,7.974323 c 3.27684,11.352109 8.37845,20.092525 15.35467,26.306637 l 6.04494,5.384562 -5.33333,-0.810342 -5.33334,-0.810343 3.33334,2.589336 c 1.83333,1.424136 5.88108,3.652492 8.995,4.951904 7.12562,2.973465 7.27474,4.795541 0.33833,4.134048 -2.93333,-0.279739 -5.33333,-0.05496 -5.33333,0.49952 0,1.270501 8.34248,5.498108 15.28644,7.746505 5.04752,1.634342 5.14214,1.765091 2.09354,2.892839 -1.75609,0.649622 -5.93499,0.835856 -9.28644,0.413852 l -6.09354,-0.767281 4.66666,2.665655 c 2.56667,1.46611 5.86667,2.78092 7.33334,2.9218 1.46666,0.14088 -0.0333,0.621824 -3.33334,1.068766 l -6,0.812618 4,2.267072 4,2.267074 -4.53998,0.05339 c -4.4377,0.05219 -4.48622,0.112787 -2.15353,2.690388 1.31255,1.450352 5.39345,4.135452 9.06866,5.966887 7.66049,3.817387 6.21112,5.518047 -3.7462,4.395707 -3.25261,-0.36661 -5.63008,-0.20745 -5.28327,0.3537 0.8814,1.42614 17.52754,7.98003 20.26835,7.98003 1.74896,0 1.89577,0.35687 0.65657,1.59606 -0.87782,0.87783 -4.92949,1.62783 -9.0037,1.66667 l -7.40765,0.0706 3.73704,3.03468 c 2.05538,1.66907 7.85397,5.11223 12.88577,7.65145 6.58441,3.32273 8.52908,4.85454 6.93805,5.46507 -2.42145,0.9292 -11.86208,0.0482 -16.08677,-1.50129 -6.5263,-2.39358 4.45408,4.11521 13.78656,8.1722 l 9.97638,4.3369 -5.80048,0.4205 -5.80048,0.42049 7.09758,3.84707 c 5.97757,3.24 6.73478,4.05009 4.79856,5.13365 -1.26446,0.70763 -4.01312,1.03501 -6.10815,0.72753 -5.34413,-0.78436 -3.55525,1.23683 2.77267,3.13271 2.90254,0.86963 5.27736,2.01228 5.27736,2.53923 0,1.60122 -12.08874,6.19694 -22.32432,8.48693 -5.31171,1.18837 -15.06171,2.54427 -21.66667,3.01311 l -12.00901,0.85242 v 11.13367 11.13368 h -8.000007 -8 z"
     id="path4514"
     inkscape:connector-curvature="0" />
  <g
     inkscape:groupmode="layer"
     id="layer1"
     inkscape:label="Layer 1" />
</svg>
